<svg width="847" height="520" xmlns="http://www.w3.org/2000/svg" version="1.1"><g transform="translate(0,10)"><g><path class="link" d="M5,187.033426183844C213,187.033426183844 213,182.033426183844 421,182.033426183844" style="stroke-width: 24.0669; fill: none; stroke: rgb(105, 191, 105); stroke-opacity: 0.4;"><title>72</title></path><path class="link" d="M5,238.14763231197773C213,238.14763231197773 213,204.4289693593315 421,204.4289693593315" style="stroke-width: 20.7242; fill: none; stroke: rgb(162, 191, 105); stroke-opacity: 0.4;"><title>62</title></path><path class="link" d="M426,179.025069637883C634,179.025069637883 634,9.025069637882952 842,9.025069637882952" style="stroke-width: 18.0501; fill: none; stroke: rgb(105, 162, 191); stroke-opacity: 0.4;"><title>54</title></path><path class="link" d="M5,283.74651810584965C213,283.74651810584965 213,223.31476323119776 421,223.31476323119776" style="stroke-width: 17.0474; fill: none; stroke: rgb(191, 162, 105); stroke-opacity: 0.4;"><title>51</title></path><path class="link" d="M426,196.07242339832868C634,196.07242339832868 634,36.07242339832864 842,36.07242339832864" style="stroke-width: 16.0446; fill: none; stroke: rgb(105, 162, 191); stroke-opacity: 0.4;"><title>48</title></path><path class="link" d="M426,210.7799442896936C634,210.7799442896936 634,60.77994428969353 842,60.77994428969353" style="stroke-width: 13.3705; fill: none; stroke: rgb(105, 162, 191); stroke-opacity: 0.4;"><title>40</title></path><path class="link" d="M426,222.81337047353762C634,222.81337047353762 634,82.81337047353755 842,82.81337047353755" style="stroke-width: 10.6964; fill: none; stroke: rgb(105, 162, 191); stroke-opacity: 0.4;"><title>32</title></path><path class="link" d="M426,232.33983286908077C634,232.33983286908077 634,102.33983286908071 842,102.33983286908071" style="stroke-width: 8.35655; fill: none; stroke: rgb(105, 162, 191); stroke-opacity: 0.4;"><title>25</title></path><path class="link" d="M426,252.20055710306409C634,252.20055710306409 634,120.52924791086343 842,120.52924791086343" style="stroke-width: 8.02228; fill: none; stroke: rgb(105, 191, 162); stroke-opacity: 0.4;"><title>24</title></path><path class="link" d="M5,202.9108635097493C213,202.9108635097493 213,252.03342618384403 421,252.03342618384403" style="stroke-width: 7.68802; fill: none; stroke: rgb(105, 191, 105); stroke-opacity: 0.4;"><title>23</title></path><path class="link" d="M5,316.4763231197772C213,316.4763231197772 213,235.01392757660165 421,235.01392757660165" style="stroke-width: 6.35097; fill: none; stroke: rgb(191, 105, 105); stroke-opacity: 0.4;"><title>19</title></path><path class="link" d="M5,251.6852367688022C213,251.6852367688022 213,259.05292479108635 421,259.05292479108635" style="stroke-width: 6.35097; fill: none; stroke: rgb(162, 191, 105); stroke-opacity: 0.4;"><title>19</title></path><path class="link" d="M5,257.53481894150417C213,257.53481894150417 213,286.2674094707521 421,286.2674094707521" style="stroke-width: 5.34819; fill: none; stroke: rgb(162, 191, 105); stroke-opacity: 0.4;"><title>16</title></path><path class="link" d="M5,209.42896935933146C213,209.42896935933146 213,280.91922005571035 421,280.91922005571035" style="stroke-width: 5.34819; fill: none; stroke: rgb(105, 191, 105); stroke-opacity: 0.4;"><title>16</title></path><path class="link" d="M426,258.5515320334262C634,258.5515320334262 634,136.88022284122553 842,136.88022284122553" style="stroke-width: 4.67967; fill: none; stroke: rgb(105, 191, 162); stroke-opacity: 0.4;"><title>14</title></path><path class="link" d="M5,214.44289693593316C213,214.44289693593316 213,307.96657381615603 421,307.96657381615603" style="stroke-width: 4.67967; fill: none; stroke: rgb(105, 191, 105); stroke-opacity: 0.4;"><title>14</title></path><path class="link" d="M426,263.0640668523677C634,263.0640668523677 634,151.39275766016706 842,151.39275766016706" style="stroke-width: 4.3454; fill: none; stroke: rgb(105, 191, 162); stroke-opacity: 0.4;"><title>13</title></path><path class="link" d="M5,262.3816155988858C213,262.3816155988858 213,312.4791086350975 421,312.4791086350975" style="stroke-width: 4.3454; fill: none; stroke: rgb(162, 191, 105); stroke-opacity: 0.4;"><title>13</title></path><path class="link" d="M5,294.27576601671313C213,294.27576601671313 213,264.23398328690814 421,264.23398328690814" style="stroke-width: 4.01114; fill: none; stroke: rgb(191, 162, 105); stroke-opacity: 0.4;"><title>12</title></path><path class="link" d="M5,298.2869080779945C213,298.2869080779945 213,290.9470752089137 421,290.9470752089137" style="stroke-width: 4.01114; fill: none; stroke: rgb(191, 162, 105); stroke-opacity: 0.4;"><title>12</title></path><path class="link" d="M426,283.7604456824513C634,283.7604456824513 634,179.08077994428962 842,179.08077994428962" style="stroke-width: 3.67688; fill: none; stroke: rgb(105, 105, 191); stroke-opacity: 0.4;"><title>11</title></path><path class="link" d="M426,280.08356545961004C634,280.08356545961004 634,165.4038997214484 842,165.4038997214484" style="stroke-width: 3.67688; fill: none; stroke: rgb(105, 105, 191); stroke-opacity: 0.4;"><title>11</title></path><path class="link" d="M426,291.11420612813373C634,291.11420612813373 634,206.43454038997206 842,206.43454038997206" style="stroke-width: 3.67688; fill: none; stroke: rgb(105, 105, 191); stroke-opacity: 0.4;"><title>11</title></path><path class="link" d="M426,287.4373259052925C634,287.4373259052925 634,192.75766016713084 842,192.75766016713084" style="stroke-width: 3.67688; fill: none; stroke: rgb(105, 105, 191); stroke-opacity: 0.4;"><title>11</title></path><path class="link" d="M426,307.2980501392758C634,307.2980501392758 634,219.94428969359322 842,219.94428969359322" style="stroke-width: 3.34262; fill: none; stroke: rgb(162, 105, 191); stroke-opacity: 0.4;"><title>10</title></path><path class="link" d="M5,301.7966573816156C213,301.7966573816156 213,316.1559888579387 421,316.1559888579387" style="stroke-width: 3.00836; fill: none; stroke: rgb(191, 162, 105); stroke-opacity: 0.4;"><title>9</title></path><path class="link" d="M5,322.9944289693594C213,322.9944289693594 213,294.2896935933148 421,294.2896935933148" style="stroke-width: 2.67409; fill: none; stroke: rgb(191, 105, 105); stroke-opacity: 0.4;"><title>8</title></path><path class="link" d="M5,320.6545961002786C213,320.6545961002786 213,267.2423398328691 421,267.2423398328691" style="stroke-width: 2.00557; fill: none; stroke: rgb(191, 105, 105); stroke-opacity: 0.4;"><title>6</title></path><path class="link" d="M426,266.0724233983287C634,266.0724233983287 634,232.45125348189404 842,232.45125348189404" style="stroke-width: 1.67131; fill: none; stroke: rgb(105, 191, 162); stroke-opacity: 0.4;"><title>5</title></path><path class="link" d="M426,237.35376044568247C634,237.35376044568247 634,244.1225626740946 842,244.1225626740946" style="stroke-width: 1.67131; fill: none; stroke: rgb(105, 162, 191); stroke-opacity: 0.4;"><title>5</title></path><path class="link" d="M426,309.4707520891365C634,309.4707520891365 634,255.45961002785506 842,255.45961002785506" style="stroke-width: 1.00279; fill: none; stroke: rgb(162, 105, 191); stroke-opacity: 0.4;"><title>3</title></path><path class="link" d="M5,217.2841225626741C213,217.2841225626741 213,328.83008356545963 421,328.83008356545963" style="stroke-width: 1.00279; fill: none; stroke: rgb(105, 191, 105); stroke-opacity: 0.4;"><title>3</title></path><path class="link" d="M426,312.4791086350975C634,312.4791086350975 634,288.46796657381606 842,288.46796657381606" style="stroke-width: 1.00279; fill: none; stroke: rgb(162, 105, 191); stroke-opacity: 0.4;"><title>3</title></path><path class="link" d="M426,311.47632311977713C634,311.47632311977713 634,277.4651810584957 842,277.4651810584957" style="stroke-width: 1.00279; fill: none; stroke: rgb(162, 105, 191); stroke-opacity: 0.4;"><title>3</title></path><path class="link" d="M426,310.47353760445685C634,310.47353760445685 634,266.4623955431754 842,266.4623955431754" style="stroke-width: 1.00279; fill: none; stroke: rgb(162, 105, 191); stroke-opacity: 0.4;"><title>3</title></path><path class="link" d="M426,313.4818941504178C634,313.4818941504178 634,299.4707520891364 842,299.4707520891364" style="stroke-width: 1.00279; fill: none; stroke: rgb(162, 105, 191); stroke-opacity: 0.4;"><title>3</title></path><path class="link" d="M426,314.48467966573816C634,314.48467966573816 634,310.47353760445674 842,310.47353760445674" style="stroke-width: 1.00279; fill: none; stroke: rgb(162, 105, 191); stroke-opacity: 0.4;"><title>3</title></path><path class="link" d="M426,295.2924791086351C634,295.2924791086351 634,395.98885793871864 842,395.98885793871864" style="stroke-width: 1; fill: none; stroke: rgb(105, 105, 191); stroke-opacity: 0.4;"><title>2</title></path><path class="link" d="M426,267.2423398328691C634,267.2423398328691 634,406.65738161559887 842,406.65738161559887" style="stroke-width: 1; fill: none; stroke: rgb(105, 191, 162); stroke-opacity: 0.4;"><title>2</title></path><path class="link" d="M426,328.6629526462396C634,328.6629526462396 634,321.30919220055705 842,321.30919220055705" style="stroke-width: 1; fill: none; stroke: rgb(191, 105, 162); stroke-opacity: 0.4;"><title>2</title></path><path class="link" d="M5,264.88857938718667C213,264.88857938718667 213,329.66573816155994 421,329.66573816155994" style="stroke-width: 1; fill: none; stroke: rgb(162, 191, 105); stroke-opacity: 0.4;"><title>2</title></path><path class="link" d="M426,293.95543175487467C634,293.95543175487467 634,374.6518105849582 842,374.6518105849582" style="stroke-width: 1; fill: none; stroke: rgb(105, 105, 191); stroke-opacity: 0.4;"><title>2</title></path><path class="link" d="M426,293.28690807799444C634,293.28690807799444 634,363.98328690807796 842,363.98328690807796" style="stroke-width: 1; fill: none; stroke: rgb(105, 105, 191); stroke-opacity: 0.4;"><title>2</title></path><path class="link" d="M426,294.6239554317549C634,294.6239554317549 634,385.3203342618384 842,385.3203342618384" style="stroke-width: 1; fill: none; stroke: rgb(105, 105, 191); stroke-opacity: 0.4;"><title>2</title></path><path class="link" d="M426,315.32033426183847C634,315.32033426183847 634,342.6462395543175 842,342.6462395543175" style="stroke-width: 1; fill: none; stroke: rgb(162, 105, 191); stroke-opacity: 0.4;"><title>2</title></path><path class="link" d="M426,315.9888579387187C634,315.9888579387187 634,353.31476323119773 842,353.31476323119773" style="stroke-width: 1; fill: none; stroke: rgb(162, 105, 191); stroke-opacity: 0.4;"><title>2</title></path><path class="link" d="M426,329.33147632311983C634,329.33147632311983 634,331.9777158774373 842,331.9777158774373" style="stroke-width: 1; fill: none; stroke: rgb(191, 105, 162); stroke-opacity: 0.4;"><title>2</title></path><path class="link" d="M5,324.66573816155994C213,324.66573816155994 213,317.9944289693594 421,317.9944289693594" style="stroke-width: 1; fill: none; stroke: rgb(191, 105, 105); stroke-opacity: 0.4;"><title>2</title></path><path class="link" d="M426,268.07799442896936C634,268.07799442896936 634,499.8328690807799 842,499.8328690807799" style="stroke-width: 1; fill: none; stroke: rgb(105, 191, 162); stroke-opacity: 0.4;"><title>1</title></path><path class="link" d="M426,316.82451253481895C634,316.82451253481895 634,427.4930362116991 842,427.4930362116991" style="stroke-width: 1; fill: none; stroke: rgb(162, 105, 191); stroke-opacity: 0.4;"><title>1</title></path><path class="link" d="M426,317.15877437325906C634,317.15877437325906 634,437.82729805013923 842,437.82729805013923" style="stroke-width: 1; fill: none; stroke: rgb(162, 105, 191); stroke-opacity: 0.4;"><title>1</title></path><path class="link" d="M426,316.49025069637884C634,316.49025069637884 634,417.158774373259 842,417.158774373259" style="stroke-width: 1; fill: none; stroke: rgb(162, 105, 191); stroke-opacity: 0.4;"><title>1</title></path><path class="link" d="M426,317.4930362116992C634,317.4930362116992 634,458.49582172701946 842,458.49582172701946" style="stroke-width: 1; fill: none; stroke: rgb(162, 105, 191); stroke-opacity: 0.4;"><title>1</title></path><path class="link" d="M426,318.1615598885794C634,318.1615598885794 634,489.4986072423398 842,489.4986072423398" style="stroke-width: 1; fill: none; stroke: rgb(162, 105, 191); stroke-opacity: 0.4;"><title>1</title></path><path class="link" d="M426,267.74373259052925C634,267.74373259052925 634,479.1643454038997 842,479.1643454038997" style="stroke-width: 1; fill: none; stroke: rgb(105, 191, 162); stroke-opacity: 0.4;"><title>1</title></path><path class="link" d="M426,317.8272980501393C634,317.8272980501393 634,468.8300835654596 842,468.8300835654596" style="stroke-width: 1; fill: none; stroke: rgb(162, 105, 191); stroke-opacity: 0.4;"><title>1</title></path><path class="link" d="M426,329.83286908078C634,329.83286908078 634,448.16155988857935 842,448.16155988857935" style="stroke-width: 1; fill: none; stroke: rgb(191, 105, 162); stroke-opacity: 0.4;"><title>1</title></path></g><g><g class="node" transform="translate(421,248.18941504178275)"><rect height="20.055710306406684" width="5"><title>Brass
60</title></rect><text x="11" y="10.027855153203342" dy=".35em" text-anchor="start" style="font-size: 11px; font-family: Arial, Helvetica; pointer-events: none;">Brass</text></g><g class="node" transform="translate(421,328.3286908077995)"><rect height="1.6713091922005572" width="5"><title>Keyboards
5</title></rect><text x="11" y="0.8356545961002786" dy=".35em" text-anchor="start" style="font-size: 11px; font-family: Arial, Helvetica; pointer-events: none;">Keyboards</text></g><g class="node" transform="translate(421,305.62674094707523)"><rect height="12.701949860724234" width="5"><title>Percussion
38</title></rect><text x="11" y="6.350974930362117" dy=".35em" text-anchor="start" style="font-size: 11px; font-family: Arial, Helvetica; pointer-events: none;">Percussion</text></g><g class="node" transform="translate(421,170)"><rect height="68.18941504178274" width="5"><title>Strings
204</title></rect><text x="11" y="34.09470752089137" dy=".35em" text-anchor="start" style="font-size: 11px; font-family: Arial, Helvetica; pointer-events: none;">Strings</text></g><g class="node" transform="translate(421,278.24512534818945)"><rect height="17.381615598885794" width="5"><title>Woodwinds
52</title></rect><text x="11" y="8.690807799442897" dy=".35em" text-anchor="start" style="font-size: 11px; font-family: Arial, Helvetica; pointer-events: none;">Woodwinds</text></g><g class="node" transform="translate(842,499.6657381615599)"><rect height="0.3342618384401114" width="5" style="fill: rgb(102, 102, 102);"><title>Baritone horn
1</title></rect><text x="-6" y="0.1671309192200557" dy=".35em" text-anchor="end" style="font-size: 11px; font-family: Arial, Helvetica; pointer-events: none;">Baritone horn</text></g><g class="node" transform="translate(842,384.9860724233983)"><rect height="0.6685236768802229" width="5" style="fill: rgb(102, 102, 102);"><title>Bass Clarinet
2</title></rect><text x="-6" y="0.3342618384401114" dy=".35em" text-anchor="end" style="font-size: 11px; font-family: Arial, Helvetica; pointer-events: none;">Bass Clarinet</text></g><g class="node" transform="translate(842,276.9637883008356)"><rect height="1.0027855153203342" width="5" style="fill: rgb(102, 102, 102);"><title>Bass Drum
3</title></rect><text x="-6" y="0.5013927576601671" dy=".35em" text-anchor="end" style="font-size: 11px; font-family: Arial, Helvetica; pointer-events: none;">Bass Drum</text></g><g class="node" transform="translate(842,163.56545961002777)"><rect height="3.6768802228412256" width="5" style="fill: rgb(102, 102, 102);"><title>Bassoons
11</title></rect><text x="-6" y="1.8384401114206128" dy=".35em" text-anchor="end" style="font-size: 11px; font-family: Arial, Helvetica; pointer-events: none;">Bassoons</text></g><g class="node" transform="translate(842,331.64345403899716)"><rect height="0.6685236768802229" width="5" style="fill: rgb(102, 102, 102);"><title>Celesta
2</title></rect><text x="-6" y="0.3342618384401114" dy=".35em" text-anchor="end" style="font-size: 11px; font-family: Arial, Helvetica; pointer-events: none;">Celesta</text></g><g class="node" transform="translate(842,77.46518105849576)"><rect height="10.696378830083566" width="5" style="fill: rgb(102, 102, 102);"><title>Cellos
32</title></rect><text x="-6" y="5.348189415041783" dy=".35em" text-anchor="end" style="font-size: 11px; font-family: Arial, Helvetica; pointer-events: none;">Cellos</text></g><g class="node" transform="translate(842,468.66295264623955)"><rect height="0.3342618384401114" width="5" style="fill: rgb(102, 102, 102);"><title>Chimes
1</title></rect><text x="-6" y="0.1671309192200557" dy=".35em" text-anchor="end" style="font-size: 11px; font-family: Arial, Helvetica; pointer-events: none;">Chimes</text></g><g class="node" transform="translate(842,190.9192200557102)"><rect height="3.6768802228412256" width="5" style="fill: rgb(102, 102, 102);"><title>Clarinets
11</title></rect><text x="-6" y="1.8384401114206128" dy=".35em" text-anchor="end" style="font-size: 11px; font-family: Arial, Helvetica; pointer-events: none;">Clarinets</text></g><g class="node" transform="translate(842,374.31754874651807)"><rect height="0.6685236768802229" width="5" style="fill: rgb(102, 102, 102);"><title>Contrabassoon
2</title></rect><text x="-6" y="0.3342618384401114" dy=".35em" text-anchor="end" style="font-size: 11px; font-family: Arial, Helvetica; pointer-events: none;">Contrabassoon</text></g><g class="node" transform="translate(842,406.32311977715875)"><rect height="0.6685236768802229" width="5" style="fill: rgb(102, 102, 102);"><title>Cornet
2</title></rect><text x="-6" y="0.3342618384401114" dy=".35em" text-anchor="end" style="font-size: 11px; font-family: Arial, Helvetica; pointer-events: none;">Cornet</text></g><g class="node" transform="translate(842,309.9721448467966)"><rect height="1.0027855153203342" width="5" style="fill: rgb(102, 102, 102);"><title>Cymbals
3</title></rect><text x="-6" y="0.5013927576601671" dy=".35em" text-anchor="end" style="font-size: 11px; font-family: Arial, Helvetica; pointer-events: none;">Cymbals</text></g><g class="node" transform="translate(842,98.16155988857932)"><rect height="8.356545961002785" width="5" style="fill: rgb(102, 102, 102);"><title>Double basses
25</title></rect><text x="-6" y="4.178272980501393" dy=".35em" text-anchor="end" style="font-size: 11px; font-family: Arial, Helvetica; pointer-events: none;">Double basses</text></g><g class="node" transform="translate(842,363.64902506963784)"><rect height="0.6685236768802229" width="5" style="fill: rgb(102, 102, 102);"><title>English Horn
2</title></rect><text x="-6" y="0.3342618384401114" dy=".35em" text-anchor="end" style="font-size: 11px; font-family: Arial, Helvetica; pointer-events: none;">English Horn</text></g><g class="node" transform="translate(842,177.242339832869)"><rect height="3.6768802228412256" width="5" style="fill: rgb(102, 102, 102);"><title>Flutes
11</title></rect><text x="-6" y="1.8384401114206128" dy=".35em" text-anchor="end" style="font-size: 11px; font-family: Arial, Helvetica; pointer-events: none;">Flutes</text></g><g class="node" transform="translate(842,116.5181058495821)"><rect height="8.022284122562674" width="5" style="fill: rgb(102, 102, 102);"><title>French Horns
24</title></rect><text x="-6" y="4.011142061281337" dy=".35em" text-anchor="end" style="font-size: 11px; font-family: Arial, Helvetica; pointer-events: none;">French Horns</text></g><g class="node" transform="translate(842,287.9665738161559)"><rect height="1.0027855153203342" width="5" style="fill: rgb(102, 102, 102);"><title>Glockenspiel
3</title></rect><text x="-6" y="0.5013927576601671" dy=".35em" text-anchor="end" style="font-size: 11px; font-family: Arial, Helvetica; pointer-events: none;">Glockenspiel</text></g><g class="node" transform="translate(842,243.28690807799433)"><rect height="1.6713091922005572" width="5" style="fill: rgb(102, 102, 102);"><title>Harps
5</title></rect><text x="-6" y="0.8356545961002786" dy=".35em" text-anchor="end" style="font-size: 11px; font-family: Arial, Helvetica; pointer-events: none;">Harps</text></g><g class="node" transform="translate(842,458.32869080779943)"><rect height="0.3342618384401114" width="5" style="fill: rgb(102, 102, 102);"><title>Marimba
1</title></rect><text x="-6" y="0.1671309192200557" dy=".35em" text-anchor="end" style="font-size: 11px; font-family: Arial, Helvetica; pointer-events: none;">Marimba</text></g><g class="node" transform="translate(842,204.59610027855143)"><rect height="3.6768802228412256" width="5" style="fill: rgb(102, 102, 102);"><title>Oboes
11</title></rect><text x="-6" y="1.8384401114206128" dy=".35em" text-anchor="end" style="font-size: 11px; font-family: Arial, Helvetica; pointer-events: none;">Oboes</text></g><g class="node" transform="translate(842,320.97493036211694)"><rect height="0.6685236768802229" width="5" style="fill: rgb(102, 102, 102);"><title>Piano
2</title></rect><text x="-6" y="0.3342618384401114" dy=".35em" text-anchor="end" style="font-size: 11px; font-family: Arial, Helvetica; pointer-events: none;">Piano</text></g><g class="node" transform="translate(842,395.6545961002785)"><rect height="0.6685236768802229" width="5" style="fill: rgb(102, 102, 102);"><title>Piccolo
2</title></rect><text x="-6" y="0.3342618384401114" dy=".35em" text-anchor="end" style="font-size: 11px; font-family: Arial, Helvetica; pointer-events: none;">Piccolo</text></g><g class="node" transform="translate(842,447.9944289693593)"><rect height="0.3342618384401114" width="5" style="fill: rgb(102, 102, 102);"><title>Pipe organ
1</title></rect><text x="-6" y="0.1671309192200557" dy=".35em" text-anchor="end" style="font-size: 11px; font-family: Arial, Helvetica; pointer-events: none;">Pipe organ</text></g><g class="node" transform="translate(842,254.9582172701949)"><rect height="1.0027855153203342" width="5" style="fill: rgb(102, 102, 102);"><title>Snare Drum
3</title></rect><text x="-6" y="0.5013927576601671" dy=".35em" text-anchor="end" style="font-size: 11px; font-family: Arial, Helvetica; pointer-events: none;">Snare Drum</text></g><g class="node" transform="translate(842,342.3119777158774)"><rect height="0.6685236768802229" width="5" style="fill: rgb(102, 102, 102);"><title>Tam-tam
2</title></rect><text x="-6" y="0.3342618384401114" dy=".35em" text-anchor="end" style="font-size: 11px; font-family: Arial, Helvetica; pointer-events: none;">Tam-tam</text></g><g class="node" transform="translate(842,265.96100278551523)"><rect height="1.0027855153203342" width="5" style="fill: rgb(102, 102, 102);"><title>Tambourine
3</title></rect><text x="-6" y="0.5013927576601671" dy=".35em" text-anchor="end" style="font-size: 11px; font-family: Arial, Helvetica; pointer-events: none;">Tambourine</text></g><g class="node" transform="translate(842,416.991643454039)"><rect height="0.3342618384401114" width="5" style="fill: rgb(102, 102, 102);"><title>Tenor drum
1</title></rect><text x="-6" y="0.1671309192200557" dy=".35em" text-anchor="end" style="font-size: 11px; font-family: Arial, Helvetica; pointer-events: none;">Tenor drum</text></g><g class="node" transform="translate(842,218.27298050139265)"><rect height="3.3426183844011144" width="5" style="fill: rgb(102, 102, 102);"><title>Timpani
10</title></rect><text x="-6" y="1.6713091922005572" dy=".35em" text-anchor="end" style="font-size: 11px; font-family: Arial, Helvetica; pointer-events: none;">Timpani</text></g><g class="node" transform="translate(842,298.96935933147626)"><rect height="1.0027855153203342" width="5" style="fill: rgb(102, 102, 102);"><title>Triangle
3</title></rect><text x="-6" y="0.5013927576601671" dy=".35em" text-anchor="end" style="font-size: 11px; font-family: Arial, Helvetica; pointer-events: none;">Triangle</text></g><g class="node" transform="translate(842,149.22005571030633)"><rect height="4.345403899721449" width="5" style="fill: rgb(102, 102, 102);"><title>Trombones
13</title></rect><text x="-6" y="2.1727019498607243" dy=".35em" text-anchor="end" style="font-size: 11px; font-family: Arial, Helvetica; pointer-events: none;">Trombones</text></g><g class="node" transform="translate(842,134.54038997214477)"><rect height="4.67966573816156" width="5" style="fill: rgb(102, 102, 102);"><title>Trumpets
14</title></rect><text x="-6" y="2.33983286908078" dy=".35em" text-anchor="end" style="font-size: 11px; font-family: Arial, Helvetica; pointer-events: none;">Trumpets</text></g><g class="node" transform="translate(842,231.61559888579376)"><rect height="1.6713091922005572" width="5" style="fill: rgb(102, 102, 102);"><title>Tubas
5</title></rect><text x="-6" y="0.8356545961002786" dy=".35em" text-anchor="end" style="font-size: 11px; font-family: Arial, Helvetica; pointer-events: none;">Tubas</text></g><g class="node" transform="translate(842,427.3259052924791)"><rect height="0.3342618384401114" width="5" style="fill: rgb(102, 102, 102);"><title>Tubular bells
1</title></rect><text x="-6" y="0.1671309192200557" dy=".35em" text-anchor="end" style="font-size: 11px; font-family: Arial, Helvetica; pointer-events: none;">Tubular bells</text></g><g class="node" transform="translate(842,437.6601671309192)"><rect height="0.3342618384401114" width="5" style="fill: rgb(102, 102, 102);"><title>Vibraphone
1</title></rect><text x="-6" y="0.1671309192200557" dy=".35em" text-anchor="end" style="font-size: 11px; font-family: Arial, Helvetica; pointer-events: none;">Vibraphone</text></g><g class="node" transform="translate(842,54.094707520891305)"><rect height="13.370473537604457" width="5" style="fill: rgb(102, 102, 102);"><title>Violas
40</title></rect><text x="-6" y="6.685236768802229" dy=".35em" text-anchor="end" style="font-size: 11px; font-family: Arial, Helvetica; pointer-events: none;">Violas</text></g><g class="node" transform="translate(842,-5.684341886080802e-14)"><rect height="18.050139275766018" width="5" style="fill: rgb(102, 102, 102);"><title>Violins 1
54</title></rect><text x="-6" y="9.025069637883009" dy=".35em" text-anchor="end" style="font-size: 11px; font-family: Arial, Helvetica; pointer-events: none;">Violins 1</text></g><g class="node" transform="translate(842,28.05013927576596)"><rect height="16.044568245125348" width="5" style="fill: rgb(102, 102, 102);"><title>Violins 2
48</title></rect><text x="-6" y="8.022284122562674" dy=".35em" text-anchor="end" style="font-size: 11px; font-family: Arial, Helvetica; pointer-events: none;">Violins 2</text></g><g class="node" transform="translate(842,478.99721448467966)"><rect height="0.3342618384401114" width="5" style="fill: rgb(102, 102, 102);"><title>Wagner Tuba
1</title></rect><text x="-6" y="0.1671309192200557" dy=".35em" text-anchor="end" style="font-size: 11px; font-family: Arial, Helvetica; pointer-events: none;">Wagner Tuba</text></g><g class="node" transform="translate(842,489.3314763231198)"><rect height="0.3342618384401114" width="5" style="fill: rgb(102, 102, 102);"><title>Wood block
1</title></rect><text x="-6" y="0.1671309192200557" dy=".35em" text-anchor="end" style="font-size: 11px; font-family: Arial, Helvetica; pointer-events: none;">Wood block</text></g><g class="node" transform="translate(842,352.9805013927576)"><rect height="0.6685236768802229" width="5" style="fill: rgb(102, 102, 102);"><title>Xylophone
2</title></rect><text x="-6" y="0.3342618384401114" dy=".35em" text-anchor="end" style="font-size: 11px; font-family: Arial, Helvetica; pointer-events: none;">Xylophone</text></g><g class="node" transform="translate(0,313.30083565459614)"><rect height="11.6991643454039" width="5"><title>Classical orchestra
35</title></rect><text x="11" y="5.84958217270195" dy=".35em" text-anchor="start" style="font-size: 11px; font-family: Arial, Helvetica; pointer-events: none;">Classical orchestra</text></g><g class="node" transform="translate(0,275.2228412256268)"><rect height="28.077994428969358" width="5"><title>Early Romantic orchestra
84</title></rect><text x="11" y="14.038997214484679" dy=".35em" text-anchor="start" style="font-size: 11px; font-family: Arial, Helvetica; pointer-events: none;">Early Romantic orchestra</text></g><g class="node" transform="translate(0,227.78551532033427)"><rect height="37.43732590529248" width="5"><title>Late Romantic orchestra
112</title></rect><text x="11" y="18.71866295264624" dy=".35em" text-anchor="start" style="font-size: 11px; font-family: Arial, Helvetica; pointer-events: none;">Late Romantic orchestra</text></g><g class="node" transform="translate(0,175)"><rect height="42.78551532033426" width="5"><title>Modern orchestra
128</title></rect><text x="11" y="21.39275766016713" dy=".35em" text-anchor="start" style="font-size: 11px; font-family: Arial, Helvetica; pointer-events: none;">Modern orchestra</text></g></g></g></svg>