<svg width="900" height="600" xmlns="http://www.w3.org/2000/svg" version="1.1"><g transform="translate(50,0)"><text x="-50" y="23" style="font-size: 10px; font-family: Arial, Helvetica;">Modern orchestra</text><g class="y axis" transform="translate(0,30)" style="font-size: 10px; font-family: Arial, Helvetica;"><g class="tick" transform="translate(0,115)" style="opacity: 1;"><line x2="-6" y2="0" style="shape-rendering: crispEdges; fill: none; stroke: rgb(204, 204, 204);"></line><text dy=".32em" x="-9" y="0" style="text-anchor: end;">0</text></g><g class="tick" transform="translate(0,99.02777777777779)" style="opacity: 1;"><line x2="-6" y2="0" style="shape-rendering: crispEdges; fill: none; stroke: rgb(204, 204, 204);"></line><text dy=".32em" x="-9" y="0" style="text-anchor: end;">10</text></g><g class="tick" transform="translate(0,83.05555555555556)" style="opacity: 1;"><line x2="-6" y2="0" style="shape-rendering: crispEdges; fill: none; stroke: rgb(204, 204, 204);"></line><text dy=".32em" x="-9" y="0" style="text-anchor: end;">20</text></g><g class="tick" transform="translate(0,67.08333333333333)" style="opacity: 1;"><line x2="-6" y2="0" style="shape-rendering: crispEdges; fill: none; stroke: rgb(204, 204, 204);"></line><text dy=".32em" x="-9" y="0" style="text-anchor: end;">30</text></g><g class="tick" transform="translate(0,51.11111111111111)" style="opacity: 1;"><line x2="-6" y2="0" style="shape-rendering: crispEdges; fill: none; stroke: rgb(204, 204, 204);"></line><text dy=".32em" x="-9" y="0" style="text-anchor: end;">40</text></g><g class="tick" transform="translate(0,35.13888888888889)" style="opacity: 1;"><line x2="-6" y2="0" style="shape-rendering: crispEdges; fill: none; stroke: rgb(204, 204, 204);"></line><text dy=".32em" x="-9" y="0" style="text-anchor: end;">50</text></g><g class="tick" transform="translate(0,19.16666666666666)" style="opacity: 1;"><line x2="-6" y2="0" style="shape-rendering: crispEdges; fill: none; stroke: rgb(204, 204, 204);"></line><text dy=".32em" x="-9" y="0" style="text-anchor: end;">60</text></g><g class="tick" transform="translate(0,3.194444444444446)" style="opacity: 1;"><line x2="-6" y2="0" style="shape-rendering: crispEdges; fill: none; stroke: rgb(204, 204, 204);"></line><text dy=".32em" x="-9" y="0" style="text-anchor: end;">70</text></g><path class="domain" d="M-6,0H0V115H-6" style="shape-rendering: crispEdges; fill: none; stroke: rgb(204, 204, 204);"></path></g><rect transform="translate(0,30)" class="bar" x="1" width="156" y="89.44444444444444" height="25.555555555555557" style="fill: rgb(191, 105, 105);"></rect><rect transform="translate(0,30)" class="bar" x="174" width="156" y="92.63888888888889" height="22.361111111111114" style="fill: rgb(191, 148, 105);"></rect><rect transform="translate(0,30)" class="bar" x="347" width="156" y="0" height="115" style="fill: rgb(191, 191, 105);"></rect><rect transform="translate(0,30)" class="bar" x="520" width="156" y="110.20833333333334" height="4.791666666666657" style="fill: rgb(148, 191, 105);"></rect><rect transform="translate(0,30)" class="bar" x="693" width="156" y="78.26388888888889" height="36.736111111111114" style="fill: rgb(105, 191, 105);"></rect></g><g transform="translate(50,145)"><text x="-50" y="23" style="font-size: 10px; font-family: Arial, Helvetica;">Late Romantic orchestra</text><g class="y axis" transform="translate(0,30)" style="font-size: 10px; font-family: Arial, Helvetica;"><g class="tick" transform="translate(0,115)" style="opacity: 1;"><line x2="-6" y2="0" style="shape-rendering: crispEdges; fill: none; stroke: rgb(204, 204, 204);"></line><text dy=".32em" x="-9" y="0" style="text-anchor: end;">0</text></g><g class="tick" transform="translate(0,96.45161290322581)" style="opacity: 1;"><line x2="-6" y2="0" style="shape-rendering: crispEdges; fill: none; stroke: rgb(204, 204, 204);"></line><text dy=".32em" x="-9" y="0" style="text-anchor: end;">10</text></g><g class="tick" transform="translate(0,77.90322580645162)" style="opacity: 1;"><line x2="-6" y2="0" style="shape-rendering: crispEdges; fill: none; stroke: rgb(204, 204, 204);"></line><text dy=".32em" x="-9" y="0" style="text-anchor: end;">20</text></g><g class="tick" transform="translate(0,59.354838709677416)" style="opacity: 1;"><line x2="-6" y2="0" style="shape-rendering: crispEdges; fill: none; stroke: rgb(204, 204, 204);"></line><text dy=".32em" x="-9" y="0" style="text-anchor: end;">30</text></g><g class="tick" transform="translate(0,40.80645161290323)" style="opacity: 1;"><line x2="-6" y2="0" style="shape-rendering: crispEdges; fill: none; stroke: rgb(204, 204, 204);"></line><text dy=".32em" x="-9" y="0" style="text-anchor: end;">40</text></g><g class="tick" transform="translate(0,22.25806451612904)" style="opacity: 1;"><line x2="-6" y2="0" style="shape-rendering: crispEdges; fill: none; stroke: rgb(204, 204, 204);"></line><text dy=".32em" x="-9" y="0" style="text-anchor: end;">50</text></g><g class="tick" transform="translate(0,3.7096774193548354)" style="opacity: 1;"><line x2="-6" y2="0" style="shape-rendering: crispEdges; fill: none; stroke: rgb(204, 204, 204);"></line><text dy=".32em" x="-9" y="0" style="text-anchor: end;">60</text></g><path class="domain" d="M-6,0H0V115H-6" style="shape-rendering: crispEdges; fill: none; stroke: rgb(204, 204, 204);"></path></g><rect transform="translate(0,30)" class="bar" x="347" width="156" y="0" height="115" style="fill: rgb(105, 191, 148);"></rect><rect transform="translate(0,30)" class="bar" x="520" width="156" y="111.29032258064517" height="3.7096774193548328" style="fill: rgb(148, 191, 105);"></rect><rect transform="translate(0,30)" class="bar" x="1" width="156" y="85.3225806451613" height="29.677419354838705" style="fill: rgb(105, 191, 191);"></rect><rect transform="translate(0,30)" class="bar" x="174" width="156" y="90.88709677419354" height="24.112903225806463" style="fill: rgb(105, 148, 191);"></rect><rect transform="translate(0,30)" class="bar" x="693" width="156" y="79.75806451612904" height="35.24193548387096" style="fill: rgb(105, 191, 105);"></rect></g><g transform="translate(50,290)"><text x="-50" y="23" style="font-size: 10px; font-family: Arial, Helvetica;">Early Romantic orchestra</text><g class="y axis" transform="translate(0,30)" style="font-size: 10px; font-family: Arial, Helvetica;"><g class="tick" transform="translate(0,115)" style="opacity: 1;"><line x2="-6" y2="0" style="shape-rendering: crispEdges; fill: none; stroke: rgb(204, 204, 204);"></line><text dy=".32em" x="-9" y="0" style="text-anchor: end;">0</text></g><g class="tick" transform="translate(0,103.72549019607844)" style="opacity: 1;"><line x2="-6" y2="0" style="shape-rendering: crispEdges; fill: none; stroke: rgb(204, 204, 204);"></line><text dy=".32em" x="-9" y="0" style="text-anchor: end;">5</text></g><g class="tick" transform="translate(0,92.45098039215686)" style="opacity: 1;"><line x2="-6" y2="0" style="shape-rendering: crispEdges; fill: none; stroke: rgb(204, 204, 204);"></line><text dy=".32em" x="-9" y="0" style="text-anchor: end;">10</text></g><g class="tick" transform="translate(0,81.17647058823529)" style="opacity: 1;"><line x2="-6" y2="0" style="shape-rendering: crispEdges; fill: none; stroke: rgb(204, 204, 204);"></line><text dy=".32em" x="-9" y="0" style="text-anchor: end;">15</text></g><g class="tick" transform="translate(0,69.90196078431373)" style="opacity: 1;"><line x2="-6" y2="0" style="shape-rendering: crispEdges; fill: none; stroke: rgb(204, 204, 204);"></line><text dy=".32em" x="-9" y="0" style="text-anchor: end;">20</text></g><g class="tick" transform="translate(0,58.627450980392155)" style="opacity: 1;"><line x2="-6" y2="0" style="shape-rendering: crispEdges; fill: none; stroke: rgb(204, 204, 204);"></line><text dy=".32em" x="-9" y="0" style="text-anchor: end;">25</text></g><g class="tick" transform="translate(0,47.35294117647059)" style="opacity: 1;"><line x2="-6" y2="0" style="shape-rendering: crispEdges; fill: none; stroke: rgb(204, 204, 204);"></line><text dy=".32em" x="-9" y="0" style="text-anchor: end;">30</text></g><g class="tick" transform="translate(0,36.07843137254902)" style="opacity: 1;"><line x2="-6" y2="0" style="shape-rendering: crispEdges; fill: none; stroke: rgb(204, 204, 204);"></line><text dy=".32em" x="-9" y="0" style="text-anchor: end;">35</text></g><g class="tick" transform="translate(0,24.80392156862745)" style="opacity: 1;"><line x2="-6" y2="0" style="shape-rendering: crispEdges; fill: none; stroke: rgb(204, 204, 204);"></line><text dy=".32em" x="-9" y="0" style="text-anchor: end;">40</text></g><g class="tick" transform="translate(0,13.529411764705886)" style="opacity: 1;"><line x2="-6" y2="0" style="shape-rendering: crispEdges; fill: none; stroke: rgb(204, 204, 204);"></line><text dy=".32em" x="-9" y="0" style="text-anchor: end;">45</text></g><g class="tick" transform="translate(0,2.2549019607843186)" style="opacity: 1;"><line x2="-6" y2="0" style="shape-rendering: crispEdges; fill: none; stroke: rgb(204, 204, 204);"></line><text dy=".32em" x="-9" y="0" style="text-anchor: end;">50</text></g><path class="domain" d="M-6,0H0V115H-6" style="shape-rendering: crispEdges; fill: none; stroke: rgb(204, 204, 204);"></path></g><rect transform="translate(0,30)" class="bar" x="1" width="156" y="87.94117647058823" height="27.058823529411768" style="fill: rgb(105, 105, 191);"></rect><rect transform="translate(0,30)" class="bar" x="693" width="156" y="87.94117647058823" height="27.058823529411768" style="fill: rgb(148, 105, 191);"></rect><rect transform="translate(0,30)" class="bar" x="174" width="156" y="94.70588235294117" height="20.294117647058826" style="fill: rgb(191, 105, 191);"></rect><rect transform="translate(0,30)" class="bar" x="347" width="156" y="0" height="115" style="fill: rgb(105, 191, 148);"></rect></g><g transform="translate(50,435)"><text x="-50" y="23" style="font-size: 10px; font-family: Arial, Helvetica;">Classical orchestra</text><g class="y axis" transform="translate(0,30)" style="font-size: 10px; font-family: Arial, Helvetica;"><g class="tick" transform="translate(0,115)" style="opacity: 1;"><line x2="-6" y2="0" style="shape-rendering: crispEdges; fill: none; stroke: rgb(204, 204, 204);"></line><text dy=".32em" x="-9" y="0" style="text-anchor: end;">0</text></g><g class="tick" transform="translate(0,102.89473684210526)" style="opacity: 1;"><line x2="-6" y2="0" style="shape-rendering: crispEdges; fill: none; stroke: rgb(204, 204, 204);"></line><text dy=".32em" x="-9" y="0" style="text-anchor: end;">2</text></g><g class="tick" transform="translate(0,90.78947368421053)" style="opacity: 1;"><line x2="-6" y2="0" style="shape-rendering: crispEdges; fill: none; stroke: rgb(204, 204, 204);"></line><text dy=".32em" x="-9" y="0" style="text-anchor: end;">4</text></g><g class="tick" transform="translate(0,78.6842105263158)" style="opacity: 1;"><line x2="-6" y2="0" style="shape-rendering: crispEdges; fill: none; stroke: rgb(204, 204, 204);"></line><text dy=".32em" x="-9" y="0" style="text-anchor: end;">6</text></g><g class="tick" transform="translate(0,66.57894736842105)" style="opacity: 1;"><line x2="-6" y2="0" style="shape-rendering: crispEdges; fill: none; stroke: rgb(204, 204, 204);"></line><text dy=".32em" x="-9" y="0" style="text-anchor: end;">8</text></g><g class="tick" transform="translate(0,54.47368421052632)" style="opacity: 1;"><line x2="-6" y2="0" style="shape-rendering: crispEdges; fill: none; stroke: rgb(204, 204, 204);"></line><text dy=".32em" x="-9" y="0" style="text-anchor: end;">10</text></g><g class="tick" transform="translate(0,42.36842105263158)" style="opacity: 1;"><line x2="-6" y2="0" style="shape-rendering: crispEdges; fill: none; stroke: rgb(204, 204, 204);"></line><text dy=".32em" x="-9" y="0" style="text-anchor: end;">12</text></g><g class="tick" transform="translate(0,30.263157894736846)" style="opacity: 1;"><line x2="-6" y2="0" style="shape-rendering: crispEdges; fill: none; stroke: rgb(204, 204, 204);"></line><text dy=".32em" x="-9" y="0" style="text-anchor: end;">14</text></g><g class="tick" transform="translate(0,18.15789473684211)" style="opacity: 1;"><line x2="-6" y2="0" style="shape-rendering: crispEdges; fill: none; stroke: rgb(204, 204, 204);"></line><text dy=".32em" x="-9" y="0" style="text-anchor: end;">16</text></g><g class="tick" transform="translate(0,6.052631578947374)" style="opacity: 1;"><line x2="-6" y2="0" style="shape-rendering: crispEdges; fill: none; stroke: rgb(204, 204, 204);"></line><text dy=".32em" x="-9" y="0" style="text-anchor: end;">18</text></g><path class="domain" d="M-6,0H0V115H-6" style="shape-rendering: crispEdges; fill: none; stroke: rgb(204, 204, 204);"></path></g><rect transform="translate(0,30)" class="bar" x="693" width="156" y="78.6842105263158" height="36.315789473684205" style="fill: rgb(148, 105, 191);"></rect><rect transform="translate(0,30)" class="bar" x="347" width="156" y="0" height="115" style="fill: rgb(191, 105, 148);"></rect><rect transform="translate(0,30)" class="bar" x="1" width="156" y="66.57894736842105" height="48.421052631578945" style="fill: rgb(191, 105, 105);"></rect><rect transform="translate(0,30)" class="bar" x="174" width="156" y="102.89473684210526" height="12.10526315789474" style="fill: rgb(191, 148, 105);"></rect></g><g class="x axis" transform="translate(50,580)" style="font-size: 10px; font-family: Arial, Helvetica;"><g class="tick" transform="translate(79,0)" style="opacity: 1;"><line y2="6" x2="0" style="shape-rendering: crispEdges; fill: none; stroke: rgb(204, 204, 204);"></line><text dy=".71em" y="9" x="0" style="text-anchor: middle;">Woodwinds</text></g><g class="tick" transform="translate(252,0)" style="opacity: 1;"><line y2="6" x2="0" style="shape-rendering: crispEdges; fill: none; stroke: rgb(204, 204, 204);"></line><text dy=".71em" y="9" x="0" style="text-anchor: middle;">Percussion</text></g><g class="tick" transform="translate(425,0)" style="opacity: 1;"><line y2="6" x2="0" style="shape-rendering: crispEdges; fill: none; stroke: rgb(204, 204, 204);"></line><text dy=".71em" y="9" x="0" style="text-anchor: middle;">Strings</text></g><g class="tick" transform="translate(598,0)" style="opacity: 1;"><line y2="6" x2="0" style="shape-rendering: crispEdges; fill: none; stroke: rgb(204, 204, 204);"></line><text dy=".71em" y="9" x="0" style="text-anchor: middle;">Keyboards</text></g><g class="tick" transform="translate(771,0)" style="opacity: 1;"><line y2="6" x2="0" style="shape-rendering: crispEdges; fill: none; stroke: rgb(204, 204, 204);"></line><text dy=".71em" y="9" x="0" style="text-anchor: middle;">Brass</text></g><path class="domain" d="M0,6V0H850V6" style="shape-rendering: crispEdges; fill: none; stroke: rgb(204, 204, 204);"></path></g></svg>