<?xml version="1.0" encoding="utf-8"?>
<!-- Generator: Adobe Illustrator 16.0.0, SVG Export Plug-In . SVG Version: 6.00 Build 0)  -->
<!DOCTYPE svg PUBLIC "-//W3C//DTD SVG 1.1//EN" "http://www.w3.org/Graphics/SVG/1.1/DTD/svg11.dtd">
<svg version="1.1" id="Layer_1" xmlns="http://www.w3.org/2000/svg" xmlns:xlink="http://www.w3.org/1999/xlink" x="0px" y="0px"
	 width="847px" height="1000px" viewBox="0 0 847 1000" enable-background="new 0 0 847 1000" xml:space="preserve">
<path fill="none" stroke="#CCCCCC" d="M40,528.902c114.5,0,114.5-409.09,229-409.09"/>
<path fill="none" stroke="#CCCCCC" d="M40,528.902c114.5,0,114.5-187.938,229-187.938"/>
<path fill="none" stroke="#CCCCCC" d="M40,528.902c114.5,0,114.5-0.79,229-0.79"/>
<path fill="none" stroke="#CCCCCC" d="M40,528.902c114.5,0,114.5,203.025,229,203.025"/>
<path fill="none" stroke="#CCCCCC" d="M40,528.902c114.5,0,114.5,394.792,229,394.792"/>
<path fill="none" stroke="#CCCCCC" d="M269,119.812c114.5,0,114.5-101.74,229-101.74"/>
<path fill="none" stroke="#CCCCCC" d="M269,119.812c114.5,0,114.5-71.62,229-71.62"/>
<path fill="none" stroke="#CCCCCC" d="M269,119.812c114.5,0,114.5-47.523,229-47.523"/>
<path fill="none" stroke="#CCCCCC" d="M269,119.812c114.5,0,114.5-23.427,229-23.427"/>
<path fill="none" stroke="#CCCCCC" d="M269,119.812c114.5,0,114.5,0.669,229,0.669"/>
<path fill="none" stroke="#CCCCCC" d="M269,119.812c114.5,0,114.5,24.766,229,24.766"/>
<path fill="none" stroke="#CCCCCC" d="M269,119.812c114.5,0,114.5,48.862,229,48.862"/>
<path fill="none" stroke="#CCCCCC" d="M269,119.812c114.5,0,114.5,72.958,229,72.958"/>
<path fill="none" stroke="#CCCCCC" d="M269,119.812c114.5,0,114.5,97.055,229,97.055"/>
<path fill="none" stroke="#CCCCCC" d="M498,18.072c114.5,0,114.5-6.024,229-6.024"/>
<path fill="none" stroke="#CCCCCC" d="M498,18.072c114.5,0,114.5,6.024,229,6.024"/>
<path fill="none" stroke="#CCCCCC" d="M498,48.193c114.5,0,114.5,0,229,0"/>
<path fill="none" stroke="#CCCCCC" d="M498,72.289c114.5,0,114.5,0,229,0"/>
<path fill="none" stroke="#CCCCCC" d="M498,96.386c114.5,0,114.5,0,229,0"/>
<path fill="none" stroke="#CCCCCC" d="M498,120.482c114.5,0,114.5,0,229,0"/>
<path fill="none" stroke="#CCCCCC" d="M498,144.578c114.5,0,114.5,0,229,0"/>
<path fill="none" stroke="#CCCCCC" d="M498,168.675c114.5,0,114.5,0,229,0"/>
<path fill="none" stroke="#CCCCCC" d="M498,192.771c114.5,0,114.5,0,229,0"/>
<path fill="none" stroke="#CCCCCC" d="M498,216.868c114.5,0,114.5,0,229,0"/>
<path fill="none" stroke="#CCCCCC" d="M269,340.964c114.5,0,114.5-75.904,229-75.904"/>
<path fill="none" stroke="#CCCCCC" d="M269,340.964c114.5,0,114.5-21.687,229-21.687"/>
<path fill="none" stroke="#CCCCCC" d="M269,340.964c114.5,0,114.5,8.434,229,8.434"/>
<path fill="none" stroke="#CCCCCC" d="M269,340.964c114.5,0,114.5,32.53,229,32.53"/>
<path fill="none" stroke="#CCCCCC" d="M269,340.964c114.5,0,114.5,56.626,229,56.626"/>
<path fill="none" stroke="#CCCCCC" d="M498,265.06c114.5,0,114.5-24.096,229-24.096"/>
<path fill="none" stroke="#CCCCCC" d="M498,265.06c114.5,0,114.5-12.048,229-12.048"/>
<path fill="none" stroke="#CCCCCC" d="M498,265.06c114.5,0,114.5,0,229,0"/>
<path fill="none" stroke="#CCCCCC" d="M498,265.06c114.5,0,114.5,12.048,229,12.048"/>
<path fill="none" stroke="#CCCCCC" d="M498,265.06c114.5,0,114.5,24.097,229,24.097"/>
<path fill="none" stroke="#CCCCCC" d="M498,319.277c114.5,0,114.5-6.024,229-6.024"/>
<path fill="none" stroke="#CCCCCC" d="M498,319.277c114.5,0,114.5,6.024,229,6.024"/>
<path fill="none" stroke="#CCCCCC" d="M498,349.397c114.5,0,114.5,0,229,0"/>
<path fill="none" stroke="#CCCCCC" d="M498,373.494c114.5,0,114.5,0,229,0"/>
<path fill="none" stroke="#CCCCCC" d="M498,397.59c114.5,0,114.5,0,229,0"/>
<path fill="none" stroke="#CCCCCC" d="M269,528.112c114.5,0,114.5-106.426,229-106.426"/>
<path fill="none" stroke="#CCCCCC" d="M269,528.112c114.5,0,114.5-76.305,229-76.305"/>
<path fill="none" stroke="#CCCCCC" d="M269,528.112c114.5,0,114.5-46.185,229-46.185"/>
<path fill="none" stroke="#CCCCCC" d="M269,528.112c114.5,0,114.5-22.088,229-22.088"/>
<path fill="none" stroke="#CCCCCC" d="M269,528.112c114.5,0,114.5,2.008,229,2.008"/>
<path fill="none" stroke="#CCCCCC" d="M269,528.112c114.5,0,114.5,26.104,229,26.104"/>
<path fill="none" stroke="#CCCCCC" d="M269,528.112c114.5,0,114.5,50.201,229,50.201"/>
<path fill="none" stroke="#CCCCCC" d="M269,528.112c114.5,0,114.5,74.298,229,74.298"/>
<path fill="none" stroke="#CCCCCC" d="M269,528.112c114.5,0,114.5,98.394,229,98.394"/>
<path fill="none" stroke="#CCCCCC" d="M498,421.687c114.5,0,114.5,0,229,0"/>
<path fill="none" stroke="#CCCCCC" d="M498,451.808c114.5,0,114.5-6.024,229-6.024"/>
<path fill="none" stroke="#CCCCCC" d="M498,451.808c114.5,0,114.5,6.023,229,6.023"/>
<path fill="none" stroke="#CCCCCC" d="M498,481.928c114.5,0,114.5,0,229,0"/>
<path fill="none" stroke="#CCCCCC" d="M498,506.024c114.5,0,114.5,0,229,0"/>
<path fill="none" stroke="#CCCCCC" d="M498,530.12c114.5,0,114.5,0,229,0"/>
<path fill="none" stroke="#CCCCCC" d="M498,554.217c114.5,0,114.5,0,229,0"/>
<path fill="none" stroke="#CCCCCC" d="M498,578.313c114.5,0,114.5,0,229,0"/>
<path fill="none" stroke="#CCCCCC" d="M498,602.41c114.5,0,114.5,0,229,0"/>
<path fill="none" stroke="#CCCCCC" d="M498,626.506c114.5,0,114.5,0,229,0"/>
<path fill="none" stroke="#CCCCCC" d="M269,731.928c114.5,0,114.5-75.301,229-75.301"/>
<path fill="none" stroke="#CCCCCC" d="M269,731.928c114.5,0,114.5-21.084,229-21.084"/>
<path fill="none" stroke="#CCCCCC" d="M269,731.928c114.5,0,114.5,33.133,229,33.133"/>
<path fill="none" stroke="#CCCCCC" d="M269,731.928c114.5,0,114.5,63.253,229,63.253"/>
<path fill="none" stroke="#CCCCCC" d="M498,656.627c114.5,0,114.5-6.024,229-6.024"/>
<path fill="none" stroke="#CCCCCC" d="M498,656.627c114.5,0,114.5,6.023,229,6.023"/>
<path fill="none" stroke="#CCCCCC" d="M498,710.844c114.5,0,114.5-24.097,229-24.097"/>
<path fill="none" stroke="#CCCCCC" d="M498,710.844c114.5,0,114.5-12.049,229-12.049"/>
<path fill="none" stroke="#CCCCCC" d="M498,710.844c114.5,0,114.5,0,229,0"/>
<path fill="none" stroke="#CCCCCC" d="M498,710.844c114.5,0,114.5,12.048,229,12.048"/>
<path fill="none" stroke="#CCCCCC" d="M498,710.844c114.5,0,114.5,24.096,229,24.096"/>
<path fill="none" stroke="#CCCCCC" d="M498,765.061c114.5,0,114.5-6.024,229-6.024"/>
<path fill="none" stroke="#CCCCCC" d="M498,765.061c114.5,0,114.5,6.023,229,6.023"/>
<path fill="none" stroke="#CCCCCC" d="M498,795.181c114.5,0,114.5,0,229,0"/>
<path fill="none" stroke="#CCCCCC" d="M269,923.694c114.5,0,114.5-80.321,229-80.321"/>
<path fill="none" stroke="#CCCCCC" d="M269,923.694c114.5,0,114.5-32.128,229-32.128"/>
<path fill="none" stroke="#CCCCCC" d="M269,923.694c114.5,0,114.5-8.031,229-8.031"/>
<path fill="none" stroke="#CCCCCC" d="M269,923.694c114.5,0,114.5,16.064,229,16.064"/>
<path fill="none" stroke="#CCCCCC" d="M269,923.694c114.5,0,114.5,40.161,229,40.161"/>
<path fill="none" stroke="#CCCCCC" d="M269,923.694c114.5,0,114.5,64.258,229,64.258"/>
<path fill="none" stroke="#CCCCCC" d="M498,843.373c114.5,0,114.5-24.096,229-24.096"/>
<path fill="none" stroke="#CCCCCC" d="M498,843.373c114.5,0,114.5-12.048,229-12.048"/>
<path fill="none" stroke="#CCCCCC" d="M498,843.373c114.5,0,114.5,0,229,0"/>
<path fill="none" stroke="#CCCCCC" d="M498,843.373c114.5,0,114.5,12.049,229,12.049"/>
<path fill="none" stroke="#CCCCCC" d="M498,843.373c114.5,0,114.5,24.097,229,24.097"/>
<path fill="none" stroke="#CCCCCC" d="M498,891.566c114.5,0,114.5,0,229,0"/>
<path fill="none" stroke="#CCCCCC" d="M498,915.663c114.5,0,114.5,0,229,0"/>
<path fill="none" stroke="#CCCCCC" d="M498,939.759c114.5,0,114.5,0,229,0"/>
<path fill="none" stroke="#CCCCCC" d="M498,963.855c114.5,0,114.5,0,229,0"/>
<path fill="none" stroke="#CCCCCC" d="M498,987.952c114.5,0,114.5,0,229,0"/>
<g transform="translate(0,528.9022757697456)">
	<g>
		<circle fill="none" stroke="#F80303" stroke-miterlimit="10" cx="35.998" cy="0" r="4.5"/>
	</g>
</g>
<circle fill="#F8362B" cx="269" cy="119.812" r="4.5"/>
<text transform="matrix(1 0 0 1 253.0132 108.0991)" font-family="'AvenirLTStd-Roman'" font-size="11">Africa</text>
<circle fill="#F8EA3E" cx="498" cy="18.072" r="4.5"/>
<text transform="matrix(1 0 0 1 465.3574 21.0723)" font-family="'AvenirLTStd-Roman'" font-size="11">Egypt</text>
<g transform="translate(687,12.048192771084338)">
	<g>
		<circle fill="#F8EA3E" cx="40" cy="0" r="4.5"/>
		<text transform="matrix(1 0 0 1 48 2.9996)" font-family="'AvenirLTStd-Roman'" font-size="11">Cairo</text>
	</g>
</g>
<g transform="translate(687,24.096385542168676)">
	<g>
		<circle fill="#F8EA3E" cx="40" cy="0" r="4.5"/>
		<text transform="matrix(1 0 0 1 48 3.0002)" font-family="'AvenirLTStd-Roman'" font-size="11">Alexandria</text>
	</g>
</g>
<circle fill="#F8EA3E" cx="498" cy="48.193" r="4.5"/>
<text transform="matrix(1 0 0 1 458.2412 51.1924)" font-family="'AvenirLTStd-Roman'" font-size="11">Nigeria</text>
<g transform="translate(687,48.19277108433735)">
	<g>
		<circle fill="#F8EA3E" cx="40" cy="0" r="4.5"/>
		<text transform="matrix(1 0 0 1 48 2.9996)" font-family="'AvenirLTStd-Roman'" font-size="11">Lagos</text>
	</g>
</g>
<circle fill="#F8EA3E" cx="498" cy="72.289" r="4.5"/>
<text transform="matrix(1 0 0 1 322.667 75.2891)" font-family="'AvenirLTStd-Roman'" font-size="11">Democratic Republic of the Congo</text>
<g transform="translate(687,72.28915662650603)">
	<g>
		<circle fill="#F8EA3E" cx="40" cy="0" r="4.5"/>
		<text transform="matrix(1 0 0 1 48 2.9999)" font-family="'AvenirLTStd-Roman'" font-size="11">Kinshasa-Brazzaville</text>
	</g>
</g>
<circle fill="#F8EA3E" cx="498" cy="96.386" r="4.5"/>
<text transform="matrix(1 0 0 1 455.7764 99.3857)" font-family="'AvenirLTStd-Roman'" font-size="11">Somalia</text>
<g transform="translate(687,96.3855421686747)">
	<g>
		<circle fill="#F8EA3E" cx="40" cy="0" r="4.5"/>
		<text transform="matrix(1 0 0 1 48 3.0002)" font-family="'AvenirLTStd-Roman'" font-size="11">Mogadishu</text>
	</g>
</g>
<circle fill="#F8EA3E" cx="498" cy="120.482" r="4.5"/>
<text transform="matrix(1 0 0 1 463.7188 123.4824)" font-family="'AvenirLTStd-Roman'" font-size="11">Sudan</text>
<g transform="translate(687,120.48192771084338)">
	<g>
		<circle fill="#F8EA3E" cx="40" cy="0" r="4.5"/>
		<text transform="matrix(1 0 0 1 48 3.0005)" font-family="'AvenirLTStd-Roman'" font-size="11">Khartoum-Omdurman</text>
	</g>
</g>
<circle fill="#F8EA3E" cx="498" cy="144.578" r="4.5"/>
<text transform="matrix(1 0 0 1 459.0322 147.5781)" font-family="'AvenirLTStd-Roman'" font-size="11">Angola</text>
<g transform="translate(687,144.57831325301206)">
	<g>
		<circle fill="#F8EA3E" cx="40" cy="0" r="4.5"/>
		<text transform="matrix(1 0 0 1 48 2.9998)" font-family="'AvenirLTStd-Roman'" font-size="11">Luanda</text>
	</g>
</g>
<circle fill="#F8EA3E" cx="498" cy="168.675" r="4.5"/>
<text transform="matrix(1 0 0 1 452.5205 171.6748)" font-family="'AvenirLTStd-Roman'" font-size="11">Tanzania</text>
<g transform="translate(687,168.67469879518072)">
	<g>
		<circle fill="#F8EA3E" cx="40" cy="0" r="4.5"/>
		<text transform="matrix(1 0 0 1 48 3.0001)" font-family="'AvenirLTStd-Roman'" font-size="11">Dar es Salaam</text>
	</g>
</g>
<circle fill="#F8EA3E" cx="498" cy="192.771" r="4.5"/>
<text transform="matrix(1 0 0 1 439.0234 195.7715)" font-family="'AvenirLTStd-Roman'" font-size="11">Ivory Coast</text>
<g transform="translate(687,192.7710843373494)">
	<g>
		<circle fill="#F8EA3E" cx="40" cy="0" r="4.5"/>
		<text transform="matrix(1 0 0 1 48 3.0004)" font-family="'AvenirLTStd-Roman'" font-size="11">Abidjan</text>
	</g>
</g>
<circle fill="#F8EA3E" cx="498" cy="216.868" r="4.5"/>
<text transform="matrix(1 0 0 1 433.9521 219.8672)" font-family="'AvenirLTStd-Roman'" font-size="11">South Africa</text>
<g transform="translate(687,216.86746987951807)">
	<g>
		<circle fill="#F8EA3E" cx="40" cy="0" r="4.5"/>
		<text transform="matrix(1 0 0 1 48 2.9997)" font-family="'AvenirLTStd-Roman'" font-size="11">Greater Johannesburg</text>
	</g>
</g>
<circle fill="#F8362B" cx="269" cy="340.964" r="4.5"/>
<text transform="matrix(1 0 0 1 256.9897 330.1206)" font-family="'AvenirLTStd-Roman'" font-size="11">Asia</text>
<g transform="translate(687,240.96385542168676)">
	<g>
		<circle fill="#F8EA3E" cx="40" cy="0" r="4.5"/>
		<text transform="matrix(1 0 0 1 48 3)" font-family="'AvenirLTStd-Roman'" font-size="11">Beijing</text>
	</g>
</g>
<g transform="translate(687,253.01204819277106)">
	<g>
		<circle fill="#F8EA3E" cx="40" cy="0" r="4.5"/>
		<text transform="matrix(1 0 0 1 48 2.9996)" font-family="'AvenirLTStd-Roman'" font-size="11">Tianjin</text>
	</g>
</g>
<g transform="translate(687,265.06024096385545)">
	<g>
		<circle fill="#F8EA3E" cx="40" cy="0" r="4.5"/>
		<text transform="matrix(1 0 0 1 48 3.0003)" font-family="'AvenirLTStd-Roman'" font-size="11">Guangzhou</text>
	</g>
</g>
<g transform="translate(687,277.10843373493975)">
	<g>
		<circle fill="#F8EA3E" cx="40" cy="0" r="4.5"/>
		<text transform="matrix(1 0 0 1 48 3)" font-family="'AvenirLTStd-Roman'" font-size="11">Shenzhen</text>
	</g>
</g>
<g transform="translate(687,289.1566265060241)">
	<g>
		<circle fill="#F8EA3E" cx="40" cy="0" r="4.5"/>
		<text transform="matrix(1 0 0 1 48 2.9996)" font-family="'AvenirLTStd-Roman'" font-size="11">Shanghai</text>
	</g>
</g>
<g transform="translate(687,313.2530120481928)">
	<g>
		<circle fill="#F8EA3E" cx="40" cy="0" r="4.5"/>
		<text transform="matrix(1 0 0 1 48 2.9999)" font-family="'AvenirLTStd-Roman'" font-size="11">Delhi</text>
	</g>
</g>
<g transform="translate(687,325.3012048192771)">
	<g>
		<circle fill="#F8EA3E" cx="40" cy="0" r="4.5"/>
		<text transform="matrix(1 0 0 1 48 2.9996)" font-family="'AvenirLTStd-Roman'" font-size="11">Mumbai</text>
	</g>
</g>
<g transform="translate(687,349.3975903614458)">
	<g>
		<circle fill="#F8EA3E" cx="40" cy="0" r="4.5"/>
		<text transform="matrix(1 0 0 1 48 2.9999)" font-family="'AvenirLTStd-Roman'" font-size="11">Tokyo</text>
	</g>
</g>
<g transform="translate(687,373.49397590361446)">
	<g>
		<circle fill="#F8EA3E" cx="40" cy="0" r="4.5"/>
		<text transform="matrix(1 0 0 1 48 3.0001)" font-family="'AvenirLTStd-Roman'" font-size="11">Jakarta</text>
	</g>
</g>
<g transform="translate(687,397.5903614457831)">
	<g>
		<circle fill="#F8EA3E" cx="40" cy="0" r="4.5"/>
		<text transform="matrix(1 0 0 1 48 2.9995)" font-family="'AvenirLTStd-Roman'" font-size="11">Karachi</text>
	</g>
</g>
<circle fill="#F8362B" cx="269" cy="528.112" r="4.5"/>
<text transform="matrix(1 0 0 1 249.5371 517.0684)" font-family="'AvenirLTStd-Roman'" font-size="11">Europe</text>
<circle fill="#F8EA3E" cx="498" cy="265.06" r="4.5"/>
<text transform="matrix(1 0 0 1 466.1709 268.0605)" font-family="'AvenirLTStd-Roman'" font-size="11">China</text>
<circle fill="#F8EA3E" cx="498" cy="319.277" r="4.5"/>
<text transform="matrix(1 0 0 1 470.4502 322.2773)" font-family="'AvenirLTStd-Roman'" font-size="11">India</text>
<circle fill="#F8EA3E" cx="498" cy="349.397" r="4.5"/>
<text transform="matrix(1 0 0 1 464.9395 352.3975)" font-family="'AvenirLTStd-Roman'" font-size="11">Japan</text>
<circle fill="#F8EA3E" cx="498" cy="373.494" r="4.5"/>
<text transform="matrix(1 0 0 1 446.999 376.4941)" font-family="'AvenirLTStd-Roman'" font-size="11">Indonesia</text>
<circle fill="#F8EA3E" cx="498" cy="397.59" r="4.5"/>
<text transform="matrix(1 0 0 1 453.7412 400.5898)" font-family="'AvenirLTStd-Roman'" font-size="11">Pakistan</text>
<circle fill="#F8EA3E" cx="498" cy="421.687" r="4.5"/>
<text transform="matrix(1 0 0 1 462.2881 424.6865)" font-family="'AvenirLTStd-Roman'" font-size="11">Turkey</text>
<g transform="translate(687,421.68674698795184)">
	<g>
		<circle fill="#F8EA3E" cx="40" cy="0" r="4.5"/>
		<text transform="matrix(1 0 0 1 48 2.9998)" font-family="'AvenirLTStd-Roman'" font-size="11">Istanbul</text>
	</g>
</g>
<circle fill="#F8EA3E" cx="498" cy="451.808" r="4.5"/>
<text transform="matrix(1 0 0 1 463.9385 454.8076)" font-family="'AvenirLTStd-Roman'" font-size="11">Russia</text>
<g transform="translate(687,445.7831325301205)">
	<g>
		<circle fill="#F8EA3E" cx="40" cy="0" r="4.5"/>
		<text transform="matrix(1 0 0 1 48 3.0001)" font-family="'AvenirLTStd-Roman'" font-size="11">Moscow</text>
	</g>
</g>
<g transform="translate(687,457.8313253012048)">
	<g>
		<circle fill="#F8EA3E" cx="40" cy="0" r="4.5"/>
		<text transform="matrix(1 0 0 1 48 2.9998)" font-family="'AvenirLTStd-Roman'" font-size="11">Saint Petersburg</text>
	</g>
</g>
<circle fill="#F8EA3E" cx="498" cy="481.928" r="4.5"/>
<text transform="matrix(1 0 0 1 413.1963 484.9277)" font-family="'AvenirLTStd-Roman'" font-size="11">United Kingdom</text>
<g transform="translate(687,481.9277108433735)">
	<g>
		<circle fill="#F8EA3E" cx="40" cy="0" r="4.5"/>
		<text transform="matrix(1 0 0 1 48 3)" font-family="'AvenirLTStd-Roman'" font-size="11">London</text>
	</g>
</g>
<circle fill="#F8EA3E" cx="498" cy="506.024" r="4.5"/>
<text transform="matrix(1 0 0 1 449.4512 509.0244)" font-family="'AvenirLTStd-Roman'" font-size="11">Germany</text>
<g transform="translate(687,506.0240963855421)">
	<g>
		<circle fill="#F8EA3E" cx="40" cy="0" r="4.5"/>
		<text transform="matrix(1 0 0 1 48 3.0003)" font-family="'AvenirLTStd-Roman'" font-size="11">Berlin</text>
	</g>
</g>
<circle fill="#F8EA3E" cx="498" cy="530.12" r="4.5"/>
<text transform="matrix(1 0 0 1 467.1943 533.1201)" font-family="'AvenirLTStd-Roman'" font-size="11">Spain</text>
<g transform="translate(687,530.1204819277109)">
	<g>
		<circle fill="#F8EA3E" cx="40" cy="0" r="4.5"/>
		<text transform="matrix(1 0 0 1 48 2.9996)" font-family="'AvenirLTStd-Roman'" font-size="11">Madrid</text>
	</g>
</g>
<circle fill="#F8EA3E" cx="498" cy="554.217" r="4.5"/>
<text transform="matrix(1 0 0 1 456.7988 557.2168)" font-family="'AvenirLTStd-Roman'" font-size="11">Ukraine</text>
<g transform="translate(687,554.2168674698795)">
	<g>
		<circle fill="#F8EA3E" cx="40" cy="0" r="4.5"/>
		<text transform="matrix(1 0 0 1 48 2.9999)" font-family="'AvenirLTStd-Roman'" font-size="11">Kiev</text>
	</g>
</g>
<circle fill="#F8EA3E" cx="498" cy="578.313" r="4.5"/>
<text transform="matrix(1 0 0 1 474.1133 581.3135)" font-family="'AvenirLTStd-Roman'" font-size="11">Italy</text>
<g transform="translate(687,578.3132530120482)">
	<g>
		<circle fill="#F8EA3E" cx="40" cy="0" r="4.5"/>
		<text transform="matrix(1 0 0 1 48 3.0002)" font-family="'AvenirLTStd-Roman'" font-size="11">Rome</text>
	</g>
</g>
<circle fill="#F8EA3E" cx="498" cy="602.41" r="4.5"/>
<text transform="matrix(1 0 0 1 461.2656 605.4102)" font-family="'AvenirLTStd-Roman'" font-size="11">France</text>
<g transform="translate(687,602.4096385542169)">
	<g>
		<circle fill="#F8EA3E" cx="40" cy="0" r="4.5"/>
		<text transform="matrix(1 0 0 1 48 3.0005)" font-family="'AvenirLTStd-Roman'" font-size="11">Paris</text>
	</g>
</g>
<circle fill="#F8EA3E" cx="498" cy="626.506" r="4.5"/>
<text transform="matrix(1 0 0 1 458.4277 629.5059)" font-family="'AvenirLTStd-Roman'" font-size="11">Belarus</text>
<g transform="translate(687,626.5060240963855)">
	<g>
		<circle fill="#F8EA3E" cx="40" cy="0" r="4.5"/>
		<text transform="matrix(1 0 0 1 48 2.9998)" font-family="'AvenirLTStd-Roman'" font-size="11">Minsk</text>
	</g>
</g>
<circle fill="#F8362B" cx="269" cy="731.928" r="4.5"/>
<text transform="matrix(1 0 0 1 230.9971 718.3916)" font-family="'AvenirLTStd-Roman'" font-size="11">North America</text>
<circle fill="#F8EA3E" cx="498" cy="656.627" r="4.5"/>
<text transform="matrix(1 0 0 1 458.4268 659.627)" font-family="'AvenirLTStd-Roman'" font-size="11">Mexico</text>
<g transform="translate(687,650.6024096385541)">
	<g>
		<circle fill="#F8EA3E" cx="40" cy="0" r="4.5"/>
		<text transform="matrix(1 0 0 1 48 3.0001)" font-family="'AvenirLTStd-Roman'" font-size="11">Mexico City</text>
	</g>
</g>
<g transform="translate(687,662.6506024096386)">
	<g>
		<circle fill="#F8EA3E" cx="40" cy="0" r="4.5"/>
		<text transform="matrix(1 0 0 1 48 2.9998)" font-family="'AvenirLTStd-Roman'" font-size="11">Ecatepec de Morelos</text>
	</g>
</g>
<circle fill="#F8EA3E" cx="498" cy="710.844" r="4.5"/>
<text transform="matrix(1 0 0 1 427.8584 713.8438)" font-family="'AvenirLTStd-Roman'" font-size="11">United States</text>
<g transform="translate(687,686.7469879518072)">
	<g>
		<circle fill="#F8EA3E" cx="40" cy="0" r="4.5"/>
		<text transform="matrix(1 0 0 1 48 3.0001)" font-family="'AvenirLTStd-Roman'" font-size="11">Los Angeles</text>
	</g>
</g>
<g transform="translate(687,698.7951807228916)">
	<g>
		<circle fill="#F8EA3E" cx="40" cy="0" r="4.5"/>
		<text transform="matrix(1 0 0 1 48 2.9998)" font-family="'AvenirLTStd-Roman'" font-size="11">Chicago</text>
	</g>
</g>
<g transform="translate(687,710.8433734939758)">
	<g>
		<circle fill="#F8EA3E" cx="40" cy="0" r="4.5"/>
		<text transform="matrix(1 0 0 1 48 3.0004)" font-family="'AvenirLTStd-Roman'" font-size="11">Houston</text>
	</g>
</g>
<g transform="translate(687,722.8915662650602)">
	<g>
		<circle fill="#F8EA3E" cx="40" cy="0" r="4.5"/>
		<text transform="matrix(1 0 0 1 48 3.0001)" font-family="'AvenirLTStd-Roman'" font-size="11">Philadelphia</text>
	</g>
</g>
<g transform="translate(687,734.9397590361447)">
	<g>
		<circle fill="#F8EA3E" cx="40" cy="0" r="4.5"/>
		<text transform="matrix(1 0 0 1 48 2.9997)" font-family="'AvenirLTStd-Roman'" font-size="11">New York City</text>
	</g>
</g>
<circle fill="#F8EA3E" cx="498" cy="765.061" r="4.5"/>
<text transform="matrix(1 0 0 1 456.7881 768.0605)" font-family="'AvenirLTStd-Roman'" font-size="11">Canada</text>
<g transform="translate(687,759.0361445783133)">
	<g>
		<circle fill="#F8EA3E" cx="40" cy="0" r="4.5"/>
		<text transform="matrix(1 0 0 1 48 3)" font-family="'AvenirLTStd-Roman'" font-size="11">Toronto</text>
	</g>
</g>
<g transform="translate(687,771.0843373493976)">
	<g>
		<circle fill="#F8EA3E" cx="40" cy="0" r="4.5"/>
		<text transform="matrix(1 0 0 1 48 2.9996)" font-family="'AvenirLTStd-Roman'" font-size="11">Montreal</text>
	</g>
</g>
<circle fill="#F8EA3E" cx="498" cy="795.181" r="4.5"/>
<text transform="matrix(1 0 0 1 468.2061 798.1807)" font-family="'AvenirLTStd-Roman'" font-size="11">Cuba</text>
<g transform="translate(687,795.1807228915662)">
	<g>
		<circle fill="#F8EA3E" cx="40" cy="0" r="4.5"/>
		<text transform="matrix(1 0 0 1 48 2.9999)" font-family="'AvenirLTStd-Roman'" font-size="11">Havana</text>
	</g>
</g>
<circle fill="#F8362B" cx="269" cy="923.694" r="4.5"/>
<text transform="matrix(1 0 0 1 231.0957 907.6299)" font-family="'AvenirLTStd-Roman'" font-size="11">South America</text>
<circle fill="#F8EA3E" cx="498" cy="843.373" r="4.5"/>
<text transform="matrix(1 0 0 1 467.8213 846.373)" font-family="'AvenirLTStd-Roman'" font-size="11">Brazil</text>
<g transform="translate(687,819.277108433735)">
	<g>
		<circle fill="#F8EA3E" cx="40" cy="0" r="4.5"/>
		<text transform="matrix(1 0 0 1 48 3.0002)" font-family="'AvenirLTStd-Roman'" font-size="11">Fortaleza</text>
	</g>
</g>
<g transform="translate(687,831.3253012048193)">
	<g>
		<circle fill="#F8EA3E" cx="40" cy="0" r="4.5"/>
		<text transform="matrix(1 0 0 1 48 2.9999)" font-family="'AvenirLTStd-Roman'" font-size="11">Rio de Janeiro</text>
	</g>
</g>
<g transform="translate(687,843.3734939759037)">
	<g>
		<circle fill="#F8EA3E" cx="40" cy="0" r="4.5"/>
		<text transform="matrix(1 0 0 1 48 2.9996)" font-family="'AvenirLTStd-Roman'" font-size="11">Salvador</text>
	</g>
</g>
<g transform="translate(687,855.4216867469879)">
	<g>
		<circle fill="#F8EA3E" cx="40" cy="0" r="4.5"/>
		<text transform="matrix(1 0 0 1 48 3.0002)" font-family="'AvenirLTStd-Roman'" font-size="11">Brasília</text>
	</g>
</g>
<g transform="translate(687,867.4698795180723)">
	<g>
		<circle fill="#F8EA3E" cx="40" cy="0" r="4.5"/>
		<text transform="matrix(1 0 0 1 48 2.9998)" font-family="'AvenirLTStd-Roman'" font-size="11">São Paulo</text>
	</g>
</g>
<circle fill="#F8EA3E" cx="498" cy="891.566" r="4.5"/>
<text transform="matrix(1 0 0 1 471.8691 894.5664)" font-family="'AvenirLTStd-Roman'" font-size="11">Peru</text>
<g transform="translate(687,891.566265060241)">
	<g>
		<circle fill="#F8EA3E" cx="40" cy="0" r="4.5"/>
		<text transform="matrix(1 0 0 1 48 3.0001)" font-family="'AvenirLTStd-Roman'" font-size="11">Lima</text>
	</g>
</g>
<circle fill="#F8EA3E" cx="498" cy="915.663" r="4.5"/>
<text transform="matrix(1 0 0 1 446.6025 918.6631)" font-family="'AvenirLTStd-Roman'" font-size="11">Colombia</text>
<g transform="translate(687,915.6626506024096)">
	<g>
		<circle fill="#F8EA3E" cx="40" cy="0" r="4.5"/>
		<text transform="matrix(1 0 0 1 48 3.0004)" font-family="'AvenirLTStd-Roman'" font-size="11">Bogotá</text>
	</g>
</g>
<circle fill="#F8EA3E" cx="498" cy="939.759" r="4.5"/>
<text transform="matrix(1 0 0 1 469.2402 942.7588)" font-family="'AvenirLTStd-Roman'" font-size="11">Chile</text>
<g transform="translate(687,939.7590361445783)">
	<g>
		<circle fill="#F8EA3E" cx="40" cy="0" r="4.5"/>
		<text transform="matrix(1 0 0 1 48 2.9998)" font-family="'AvenirLTStd-Roman'" font-size="11">Santiago</text>
	</g>
</g>
<circle fill="#F8EA3E" cx="498" cy="963.855" r="4.5"/>
<text transform="matrix(1 0 0 1 444.5674 966.8555)" font-family="'AvenirLTStd-Roman'" font-size="11">Venezuela</text>
<g transform="translate(687,963.855421686747)">
	<g>
		<circle fill="#F8EA3E" cx="40" cy="0" r="4.5"/>
		<text transform="matrix(1 0 0 1 48 3.0001)" font-family="'AvenirLTStd-Roman'" font-size="11">Caracas</text>
	</g>
</g>
<circle fill="#F8EA3E" cx="498" cy="987.952" r="4.5"/>
<text transform="matrix(1 0 0 1 445.7881 990.9521)" font-family="'AvenirLTStd-Roman'" font-size="11">Argentina</text>
<g transform="translate(687,987.9518072289156)">
	<g>
		<circle fill="#F8EA3E" cx="40" cy="0" r="4.5"/>
		<text transform="matrix(1 0 0 1 48 3.0004)" font-family="'AvenirLTStd-Roman'" font-size="11">Buenos Aires</text>
	</g>
</g>
</svg>
