<svg width="847" height="847" xmlns="http://www.w3.org/2000/svg" version="1.1"><g transform="translate(423.5,423.5)"><g display="none"><path d="M0,299.45972183250285A299.45972183250285,299.45972183250285 0 1,1 0,-299.45972183250285A299.45972183250285,299.45972183250285 0 1,1 0,299.45972183250285Z" style="stroke: rgb(255, 255, 255); fill: rgb(191, 105, 105); fill-rule: evenodd;"></path><text transform="rotate(90)" x="0" dx="6" dy=".35em" style="font-size: 11px; font-family: Arial, Helvetica;"></text><title>undefined: none</title></g><g><path d="M2.5931895971945205e-14,-423.5A423.5,423.5 0 0,1 243.49956357344917,-346.49705992914255L172.1801926187507,-245.0104207370982A299.45972183250285,299.45972183250285 0 0,0 1.833661949078657e-14,-299.45972183250285Z" style="stroke: rgb(255, 255, 255); fill: rgb(191, 105, 105); fill-rule: evenodd;"></path><text transform="rotate(-72.45125348189414)" x="299.45972183250285" dx="6" dy=".35em" style="font-size: 11px; font-family: Arial, Helvetica;">Strings</text><title>Classical orchestra: 35</title></g><g><path d="M243.49956357344917,-346.49705992914255A423.5,423.5 0 0,1 369.20742324965613,207.45632942224077L261.06907264424365,146.69377733453672A299.45972183250285,299.45972183250285 0 0,0 172.1801926187507,-245.0104207370982Z" style="stroke: rgb(255, 255, 255); fill: rgb(105, 191, 105); fill-rule: evenodd;"></path><text transform="rotate(-12.785515320334266)" x="299.45972183250285" dx="6" dy=".35em" style="font-size: 11px; font-family: Arial, Helvetica;">Woodwinds</text><title>Early Romantic orchestra: 84</title></g><g><path d="M369.20742324965613,207.45632942224077A423.5,423.5 0 0,1 -332.09358966432234,262.8042954440903L-234.82562924022506,185.83069943346914A299.45972183250285,299.45972183250285 0 0,0 261.06907264424365,146.69377733453672Z" style="stroke: rgb(255, 255, 255); fill: rgb(105, 105, 191); fill-rule: evenodd;"></path><text transform="rotate(85.4874651810585)" x="299.45972183250285" dx="6" dy=".35em" style="font-size: 11px; font-family: Arial, Helvetica;">Percussion</text><title>Late Romantic orchestra: 112</title></g><g><path d="M-332.09358966432234,262.8042954440903A423.5,423.5 0 0,1 -4.539392486588386e-13,-423.5L-3.209835209733912e-13,-299.45972183250285A299.45972183250285,299.45972183250285 0 0,0 -234.82562924022506,185.83069943346914Z" style="stroke: rgb(255, 255, 255); fill: rgb(105, 105, 191); fill-rule: evenodd;"></path><text transform="rotate(205.82172701949852)" x="299.45972183250285" dx="6" dy=".35em" style="font-size: 11px; font-family: Arial, Helvetica;">Percussion</text><title>Modern orchestra: 128</title></g></g></svg>